<svg width="64" height="64" viewBox="0 0 64 64" fill="none" xmlns="http://www.w3.org/2000/svg" role="img" aria-label="코칭패스 서류 첨삭 로고">
  <defs>
    <linearGradient id="cpBg" x1="0" y1="0" x2="64" y2="64" gradientUnits="userSpaceOnUse">
      <stop stop-color="#1d1d1d"/>
      <stop offset="1" stop-color="#060606"/>
    </linearGradient>
    <linearGradient id="cpGold" x1="18" y1="12" x2="46" y2="54" gradientUnits="userSpaceOnUse">
      <stop stop-color="#F6DB8B"/>
      <stop offset="0.5" stop-color="#D4AF37"/>
      <stop offset="1" stop-color="#B0801F"/>
    </linearGradient>
  </defs>

  <!-- 배경 타일 -->
  <rect width="64" height="64" rx="15" fill="url(#cpBg)"/>
  <rect x="3.5" y="3.5" width="57" height="57" rx="12.5" stroke="#C5A028" stroke-opacity="0.35"/>

  <!-- 서류(페이퍼) + 접힌 모서리 -->
  <path d="M20 13.5H38L46.5 22V49.5a2.5 2.5 0 0 1-2.5 2.5H20a2.5 2.5 0 0 1-2.5-2.5V16a2.5 2.5 0 0 1 2.5-2.5Z" fill="url(#cpGold)"/>
  <path d="M38 13.5 46.5 22H40.5A2.5 2.5 0 0 1 38 19.5Z" fill="#9A6E1E"/>

  <!-- 본문 텍스트 라인 -->
  <rect x="23" y="27" width="18" height="2.6" rx="1.3" fill="#12110D" fill-opacity="0.82"/>
  <rect x="23" y="32.7" width="18" height="2.6" rx="1.3" fill="#12110D" fill-opacity="0.82"/>
  <rect x="23" y="38.4" width="11" height="2.6" rx="1.3" fill="#12110D" fill-opacity="0.82"/>

  <!-- 합격/승인 체크 배지 -->
  <circle cx="44" cy="44.5" r="8.6" fill="#0E0E0E" stroke="url(#cpGold)" stroke-width="2"/>
  <path d="M40.3 44.6 43 47.3 48 41.9" stroke="#F6DB8B" stroke-width="2.3" stroke-linecap="round" stroke-linejoin="round"/>
</svg>
